<svg xmlns="http://www.w3.org/2000/svg" width="64.125" height="35.22" viewBox="0 0 64.125 35.22">
  <defs>
    <style>
      .cls-1 {
        fill: #1ebcd8;
        fill-rule: evenodd;
      }
    </style>
  </defs>
  <path class="cls-1" d="M918.5,2049.94a5.64,5.64,0,0,0-5.192,7.84l-11.811,11.8a5.613,5.613,0,0,0-4.4,0l-7.056-7.05a5.638,5.638,0,1,0-10.384,0l-11.811,11.8a5.564,5.564,0,0,0-2.2-.44,5.628,5.628,0,1,0,5.192,3.43l11.811-11.8a5.73,5.73,0,0,0,4.4,0l7.056,7.05a5.638,5.638,0,1,0,10.384,0l11.811-11.81a5.57,5.57,0,0,0,2.2.45A5.635,5.635,0,1,0,918.5,2049.94Z" transform="translate(-860 -2049.94)"/>
</svg>
