<svg xmlns="http://www.w3.org/2000/svg" width="72.156" height="43.1" viewBox="0 0 72.156 43.1">
  <defs>
    <style>
      .cls-1 {
        fill: #1ebcd8;
        fill-rule: evenodd;
      }
    </style>
  </defs>
  <path class="cls-1" d="M554.11,1885.19h0.118c9.47-.1,8.1-12.75,8.1-12.75-0.384-8.44-7.461-8.37-8.155-8.34-0.695-.03-7.757-0.1-8.156,8.34C546.013,1872.46,544.64,1885.1,554.11,1885.19Zm22.161,4.31h0.088c7.609-.07,6.516-10.25,6.516-10.25-0.31-6.79-6-6.73-6.56-6.72-0.561-.03-6.249-0.07-6.56,6.72C569.755,1879.27,568.647,1889.43,576.271,1889.5Zm13.961,10.31c-0.059-2.18-.487-3.7-2.718-5.11-2.97-1.86-6.294-3.47-6.294-3.47l-2.645,8.36-1.536-4.39c2.7-3.78-.192-3.97-0.709-3.97H576.3c-0.517,0-3.413.19-.709,3.97l-1.536,4.38-2.645-8.36s-0.945.45-2.275,1.16a9.052,9.052,0,0,0-1.034-.73c-3.694-2.32-7.816-4.33-7.816-4.33l-3.28,10.38-1.92-5.45c3.368-4.7-.237-4.93-0.887-4.95h-0.029c-0.65,0-4.255.24-.887,4.95l-1.92,5.45-3.28-10.38s-4.122,2.01-7.816,4.33a10.8,10.8,0,0,0-1.048.75c-1.345-.73-2.3-1.18-2.3-1.18l-2.645,8.36-1.536-4.38c2.7-3.78-.192-3.97-0.71-3.97h-0.029c-0.517,0-3.413.19-.709,3.97l-1.537,4.38-2.644-8.36s-3.324,1.61-6.294,3.47c-2.246,1.4-2.659,2.92-2.718,5.11v7.4h72.156Zm-58.313-10.31h0.089c7.623-.07,6.515-10.25,6.515-10.25-0.31-6.79-6-6.73-6.56-6.72-0.561-.03-6.249-0.07-6.559,6.72C525.4,1879.27,524.31,1889.43,531.919,1889.5Z" transform="translate(-518.094 -1864.09)"/>
</svg>
