<svg xmlns="http://www.w3.org/2000/svg" width="52.56" height="41.12" viewBox="0 0 52.56 41.12">
  <defs>
    <style>
      .cls-1 {
        fill: #1ebcd8;
        fill-rule: evenodd;
      }
    </style>
  </defs>
  <path id="Forma_1" data-name="Forma 1" class="cls-1" d="M1244.75,1886.42l8.09,16.62a0.789,0.789,0,0,1-.77,1.23H1201.3a0.791,0.791,0,0,1-.77-1.23l8.09-16.62a0.933,0.933,0,0,1,.77-0.48h6.94a0.954,0.954,0,0,1,.64.29c0.47,0.55.95,1.08,1.43,1.6,0.46,0.5.91,1.01,1.37,1.53h-8.24a0.933,0.933,0,0,0-.77.48l-5.36,11.01h42.57l-5.36-11.01a0.92,0.92,0,0,0-.77-0.48h-8.25c0.45-.52.91-1.03,1.36-1.53,0.48-.52.96-1.05,1.44-1.6a0.954,0.954,0,0,1,.64-0.29h6.95A0.92,0.92,0,0,1,1244.75,1886.42Zm-6.16-11.36c0,9.08-7.57,10.79-11.12,19.51a0.852,0.852,0,0,1-1.58,0c-3.21-7.87-9.68-10.03-10.91-17.04-1.22-6.9,3.56-13.66,10.54-14.32A11.909,11.909,0,0,1,1238.59,1875.06Zm-5.62,0a6.29,6.29,0,1,0-6.29,6.29A6.295,6.295,0,0,0,1232.97,1875.06Z" transform="translate(-1200.41 -1863.16)"/>
</svg>
