<svg xmlns="http://www.w3.org/2000/svg" width="52.849" height="52.87" viewBox="0 0 52.849 52.87">
  <defs>
    <style>
      .cls-1 {
        fill: #fff;
        fill-rule: evenodd;
      }
    </style>
  </defs>
  <path class="cls-1" d="M1010.39,1334.37a26.43,26.43,0,0,0-39.124,35.45c-1.185,2.42-2.58,4.04-4.163,4.81a2.466,2.466,0,0,0,.708,4.65,12.409,12.409,0,0,0,1.872.14h0a17.08,17.08,0,0,0,9.5-3.07A26.437,26.437,0,0,0,1010.39,1334.37Zm-2.11,35.26a23.468,23.468,0,0,1-28.445,3.64,1.575,1.575,0,0,0-.753-0.21,1.553,1.553,0,0,0-.919.31,14.224,14.224,0,0,1-8.292,3.04,15.02,15.02,0,0,0,4.528-6.25,1.517,1.517,0,0,0-.254-1.6A23.44,23.44,0,1,1,1008.28,1369.63Zm-5.5-25.3H980.633a1.495,1.495,0,1,0,0,2.99h22.147A1.5,1.5,0,0,0,1002.78,1344.33Zm0,7.23H980.633a1.495,1.495,0,1,0,0,2.99h22.147A1.5,1.5,0,0,0,1002.78,1351.56Zm0,7.23H980.633a1.495,1.495,0,1,0,0,2.99h22.147A1.5,1.5,0,0,0,1002.78,1358.79Z" transform="translate(-965.281 -1326.63)"/>
</svg>
