<svg xmlns="http://www.w3.org/2000/svg" width="49.313" height="54.5" viewBox="0 0 49.313 54.5">
  <defs>
    <style>
      .cls-1 {
        fill: #1ebcd8;
        fill-rule: evenodd;
      }
    </style>
  </defs>
  <path class="cls-1" d="M897.892,1901.27l-9.206,9.21-3.285-3.28a1.514,1.514,0,1,0-2.142,2.14l4.351,4.36a1.52,1.52,0,0,0,1.065.44,1.478,1.478,0,0,0,1.065-.44l10.271-10.28a1.506,1.506,0,0,0,0-2.14A1.481,1.481,0,0,0,897.892,1901.27Zm17.773-.63a6.737,6.737,0,0,0-4.844-4.77c-10.451-2.63-12.436-5.99-12.806-7.04a10.9,10.9,0,0,0,2.187-1.87c4.586-5.17,3.812-14.03,3.734-14.86-0.292-6.16-3.14-9.18-5.483-10.63a12.9,12.9,0,0,0-6.549-1.82h-0.516a12.894,12.894,0,0,0-6.537,1.82c-2.343,1.45-5.192,4.47-5.483,10.63-0.079.83-.852,9.7,3.734,14.86a11,11,0,0,0,2.186,1.89,5.014,5.014,0,0,1-1.155,1.68c-1.435,1.46-4.63,3.58-11.661,5.34a6.7,6.7,0,0,0-4.844,4.76,16.969,16.969,0,0,0-.628,5.21v3.55a1.514,1.514,0,0,0,3.027,0v-3.54c0-3.24.382-6.32,3.185-7.04,6.19-1.56,10.6-3.63,13.074-6.16a7.932,7.932,0,0,0,1.761-2.57,13.173,13.173,0,0,0,3.409.49h0.392a12.764,12.764,0,0,0,3.409-.49,8.015,8.015,0,0,0,1.76,2.57c2.49,2.53,6.885,4.6,13.075,6.16,2.8,0.72,3.2,3.8,3.2,7.04v3.55a1.514,1.514,0,0,0,3.027,0v-3.55A17.847,17.847,0,0,0,915.665,1900.64ZM891.7,1887.56H891.59a7.991,7.991,0,0,1-6.223-2.6c-3.824-4.29-2.994-12.51-2.983-12.58,0-.04.011-0.07,0.011-0.09,0.4-8.91,6.986-9.61,8.993-9.61h0.527c2.008,0,8.59.7,8.993,9.61a0.253,0.253,0,0,0,.011.09c0.012,0.07.853,8.25-2.982,12.57A7.973,7.973,0,0,1,891.7,1887.56Z" transform="translate(-867 -1859.66)"/>
</svg>
