<svg xmlns="http://www.w3.org/2000/svg" width="55.5" height="55.5" viewBox="0 0 55.5 55.5">
  <defs>
    <style>
      .cls-1 {
        fill: #21c2f8;
        fill-rule: evenodd;
      }
    </style>
  </defs>
  <path class="cls-1" d="M1227.32,2065.83h-4.12a3.105,3.105,0,1,1,0-6.21h7.27a1.415,1.415,0,1,0,0-2.83h-3.79v-2.9a1.42,1.42,0,0,0-2.84,0v2.9h-0.64a5.94,5.94,0,1,0,0,11.88h4.12a3.105,3.105,0,0,1,0,6.21h-7.41a1.415,1.415,0,0,0,0,2.83h3.92v2.95a1.42,1.42,0,0,0,2.84,0v-2.95h0.72A5.94,5.94,0,0,0,1227.32,2065.83Zm17.56-18.21a27.788,27.788,0,1,0,8.12,19.63A27.586,27.586,0,0,0,1244.88,2047.62Zm-19.63,44.55a24.92,24.92,0,1,1,24.92-24.92A24.962,24.962,0,0,1,1225.25,2092.17Z" transform="translate(-1197.5 -2039.5)"/>
</svg>
