<svg xmlns="http://www.w3.org/2000/svg" width="62" height="62" viewBox="0 0 62 62">
  <defs>
    <style>
      .cls-1 {
        fill: #fff;
        fill-rule: evenodd;
      }
    </style>
  </defs>
  <path id="Forma_1" data-name="Forma 1" class="cls-1" d="M1391.66,1340.83l13.05,3.43,3.29-13.05-2.51-.66-2.13,8.14a31,31,0,1,0,.41,31.94l-2.24-1.22a28.453,28.453,0,1,1,.13-28.61l-9.34-2.48Zm-13.29,27.92v-2.36a8.215,8.215,0,0,0,5.26-1.98,5.97,5.97,0,0,0,1.97-4.6,5.168,5.168,0,0,0-1.7-4.35,11.37,11.37,0,0,0-5.41-2.37h-0.12v-6.06a9.815,9.815,0,0,1,4.6,1.85l2.12-2.9a12.93,12.93,0,0,0-6.72-2.37v-1.58h-1.98v1.58a8.122,8.122,0,0,0-5.01,1.98,6,6,0,0,0-1.97,4.6,5.032,5.032,0,0,0,1.71,4.21,12.243,12.243,0,0,0,5.26,2.24v6.19a10.934,10.934,0,0,1-5.53-2.77l-2.37,2.77a13.519,13.519,0,0,0,7.91,3.56v2.36h1.98Zm0.12-11.46a7.675,7.675,0,0,1,2.63,1.19,2.833,2.833,0,0,1,.66,1.85,2.128,2.128,0,0,1-.92,1.84,4.744,4.744,0,0,1-2.37.93v-5.81Zm-4.6-5.66a2.458,2.458,0,0,1-.66-1.7,2.424,2.424,0,0,1,.78-1.85,4.352,4.352,0,0,1,2.37-.93v5.67A6.085,6.085,0,0,1,1373.89,1351.63Z" transform="translate(-1346 -1324)"/>
</svg>
