<svg xmlns="http://www.w3.org/2000/svg" width="47.75" height="51.06" viewBox="0 0 47.75 51.06">
  <defs>
    <style>
      .cls-1 {
        fill: #fff;
        fill-rule: evenodd;
      }
    </style>
  </defs>
  <path id="Forma_1" data-name="Forma 1" class="cls-1" d="M579.079,1369.81V1334.4h32.4v10.67a10.175,10.175,0,0,1,1.925-.2c0.336,0,.656.07,0.985,0.1v-13.48H576.169v41.23h24.037v-2.91H579.079Zm4.138-16.19h19.741a10.491,10.491,0,0,1,1.082-3.04H583.217v3.04Zm0-12.56h24.116v3.05H583.217v-3.05Zm0,22.09h20.466a6.616,6.616,0,0,1,1.756-.77,11.724,11.724,0,0,1-1.5-2.28H583.217v3.05Zm30.186,0.3a7.935,7.935,0,1,0-7.918-7.93A7.923,7.923,0,0,0,613.4,1363.45Zm6.365,1.29H607.053a4.419,4.419,0,0,0-4.131,4.65v12.76c0,0.14.065,0.27,0.074,0.41h20.82c0.012-.14.077-0.27,0.077-0.41v-12.76A4.407,4.407,0,0,0,619.768,1364.74Z" transform="translate(-576.156 -1331.5)"/>
</svg>
