<svg xmlns="http://www.w3.org/2000/svg" width="18.66" height="16" viewBox="0 0 18.66 16">
  <defs>
    <style>
      .cls-1 {
        fill: #fff;
        fill-rule: evenodd;
      }
    </style>
  </defs>
  <path id="Forma_1" data-name="Forma 1" class="cls-1" d="M1433.55,2848.18a0.472,0.472,0,0,0-.67-0.12l-5.29,3.59-1.17-1.57a0.494,0.494,0,0,0-.55-0.17,0.506,0.506,0,0,0-.31.62l0.96,2.88a0.968,0.968,0,0,0,.18.31,0.867,0.867,0,0,0,1.22.06l0.06-.05,5.49-4.91A0.489,0.489,0,0,0,1433.55,2848.18Zm-8.86,3.87h-8.72v-13.08h12.77v10.05a0.485,0.485,0,0,0,.97,0v-10.54a0.487,0.487,0,0,0-.48-0.48h-13.75a0.487,0.487,0,0,0-.48.48v14.06a0.487,0.487,0,0,0,.48.48h9.21A0.485,0.485,0,1,0,1424.69,2852.05Zm1.57-11.02h-7.81a0.485,0.485,0,1,0,0,.97h7.81A0.485,0.485,0,1,0,1426.26,2841.03Zm0,2.09h-7.81a0.485,0.485,0,1,0,0,.97h7.81A0.485,0.485,0,1,0,1426.26,2843.12Zm0,2.09h-7.81a0.485,0.485,0,1,0,0,.97h7.81A0.485,0.485,0,1,0,1426.26,2845.21Zm0.49,2.57a0.489,0.489,0,0,0-.49-0.48h-7.81a0.485,0.485,0,1,0,0,.97h7.81A0.491,0.491,0,0,0,1426.75,2847.78Zm-8.3,1.51a0.48,0.48,0,1,0,0,.96h3.91a0.48,0.48,0,0,0,0-.96h-3.91Z" transform="translate(-1415 -2838)"/>
</svg>
