<svg xmlns="http://www.w3.org/2000/svg" width="55.875" height="55.82" viewBox="0 0 55.875 55.82">
  <defs>
    <style>
      .cls-1 {
        fill: #1ebcd8;
        fill-rule: evenodd;
      }
    </style>
  </defs>
  <path id="Forma_1" data-name="Forma 1" class="cls-1" d="M579.111,2061.15a1.775,1.775,0,0,0-2.1-1.39,1.492,1.492,0,0,0-.366.11,1.791,1.791,0,0,0-1.026,1.99,24.458,24.458,0,0,1-9.478,24.53,24.334,24.334,0,1,1,4.91-34.52l-1.64-.24a1.783,1.783,0,1,0-.508,3.53l5.921,0.86h0.117a0.66,0.66,0,0,0,.14.01,1.783,1.783,0,0,0,1.763-1.53l0.852-5.92a1.784,1.784,0,0,0-3.532-.51l-0.241,1.68a27.946,27.946,0,1,0-26.444,44.55,28.081,28.081,0,0,0,4.369.34,27.633,27.633,0,0,0,16.4-5.37A28.036,28.036,0,0,0,579.111,2061.15Zm-17.654,6.24h-6.09a4.469,4.469,0,0,0-2.269-2.27v-13.69a1.785,1.785,0,0,0-3.569,0v13.69a4.432,4.432,0,1,0,5.838,5.84h6.09A1.785,1.785,0,0,0,561.457,2067.39Zm-11.007,1.79a0.864,0.864,0,1,1,.863.86A0.867,0.867,0,0,1,550.45,2069.18Z" transform="translate(-523.813 -2038.81)"/>
</svg>
